# xmcd
#
# Track frame offsets: 
#        150
#        9029
#        22850
#        35034
#        54730
#        68526
#        85374
#        106079
#        117675
#        136691
#        147962
#        165167
#        179602
#        198843
#
# Disc length: 2845 seconds
#
# Revision: 0
# Processed by: cddbd v1.5.2PL0 Copyright (c) Steve Scherf et al.
# Submitted via: ExactAudioCopyFreeDBPlugin 1.0
#
DISCID=ae0b1b0e
DTITLE=Hudson Mohawke - Lantern
DYEAR=2015
DGENRE=Electronic
TTITLE0=Lantern
TTITLE1=Very First Breath Ft. Irfane
TTITLE2=Ryderz
TTITLE3=Warriors Ft. Ruckazoid and Devaeux
TTITLE4=Kettles
TTITLE5=Scud Books
TTITLE6=Indian Steps Ft. Antony
TTITLE7=Lil Djembe
TTITLE8=Deepspace Ft. Miguel
TTITLE9=Shadows
TTITLE10=Resistance Ft. Jhené Aiko
TTITLE11=Portrait Of Luci
TTITLE12=System
TTITLE13=Brand New World
EXTD=
EXTT0=
EXTT1=
EXTT2=
EXTT3=
EXTT4=
EXTT5=
EXTT6=
EXTT7=
EXTT8=
EXTT9=
EXTT10=
EXTT11=
EXTT12=
EXTT13=
PLAYORDER=
